<svg xmlns="http://www.w3.org/2000/svg" viewBox="-20 -20 340 560" width="340" height="560" role="img" aria-label="Sengoku Yuno mascot">
  <title>千石由乃 · Sengoku Yuno — DSH mascot (original fan art)</title>
  <defs>
    <linearGradient id="yu-hair" x1="0.25" y1="0" x2="0.75" y2="1">
      <stop offset="0" stop-color="#2a2436"/>
      <stop offset="0.45" stop-color="#1a1622"/>
      <stop offset="1" stop-color="#12101a"/>
    </linearGradient>
    <linearGradient id="yu-hair-back" x1="0.5" y1="0" x2="0.5" y2="1">
      <stop offset="0" stop-color="#241f31"/>
      <stop offset="0.5" stop-color="#17131f"/>
      <stop offset="1" stop-color="#0f0d16"/>
    </linearGradient>
    <linearGradient id="yu-pink" x1="0.3" y1="0" x2="0.7" y2="1">
      <stop offset="0" stop-color="#ff9ecd"/>
      <stop offset="1" stop-color="#e8558f"/>
    </linearGradient>
    <linearGradient id="yu-eye" x1="0.5" y1="0" x2="0.5" y2="1">
      <stop offset="0" stop-color="#ff7a92"/>
      <stop offset="0.42" stop-color="#e33a58"/>
      <stop offset="1" stop-color="#7d0f28"/>
    </linearGradient>
    <linearGradient id="yu-skin" x1="0.5" y1="0" x2="0.5" y2="1">
      <stop offset="0" stop-color="#fde8db"/>
      <stop offset="1" stop-color="#f0c5b0"/>
    </linearGradient>
    <linearGradient id="yu-skin-limb" x1="0" y1="0" x2="0" y2="1">
      <stop offset="0" stop-color="#f8dccd"/>
      <stop offset="1" stop-color="#eec0aa"/>
    </linearGradient>
    <linearGradient id="yu-top" x1="0.5" y1="0" x2="0.5" y2="1">
      <stop offset="0" stop-color="#242130"/>
      <stop offset="1" stop-color="#121019"/>
    </linearGradient>
    <linearGradient id="yu-jacket" x1="0.3" y1="0" x2="0.8" y2="1">
      <stop offset="0" stop-color="#f2556d"/>
      <stop offset="0.5" stop-color="#d92b47"/>
      <stop offset="1" stop-color="#9c1330"/>
    </linearGradient>
    <linearGradient id="yu-collar" x1="0.5" y1="0" x2="0.5" y2="1">
      <stop offset="0" stop-color="#6f6fc4"/>
      <stop offset="1" stop-color="#3f3f86"/>
    </linearGradient>
    <linearGradient id="yu-jacket-dark" x1="0.3" y1="0" x2="0.8" y2="1">
      <stop offset="0" stop-color="#a81c37"/>
      <stop offset="1" stop-color="#630d1e"/>
    </linearGradient>
    <linearGradient id="yu-deck" x1="0.2" y1="0" x2="0.9" y2="1">
      <stop offset="0" stop-color="#2b2b3a"/>
      <stop offset="1" stop-color="#0a0a12"/>
    </linearGradient>
    <radialGradient id="yu-glow" cx="0.5" cy="0.5" r="0.5">
      <stop offset="0" stop-color="#ff6ea8" stop-opacity="0.45"/>
      <stop offset="1" stop-color="#ff6ea8" stop-opacity="0"/>
    </radialGradient>
  </defs>

  <ellipse cx="150" cy="524" rx="80" ry="13" fill="#000" opacity="0.15"/>

  <!-- ================= back hair ================= -->
  <path fill="url(#yu-hair-back)" d="M150 44
    C98 44 68 84 66 136
    C64 184 60 236 56 292
    C54 322 58 348 70 370
    C78 352 83 334 86 316
    C84 354 88 382 99 402
    C108 380 113 354 115 326
    C119 346 126 362 137 374
    C142 344 144 314 144 286 L156 286
    C156 314 158 344 163 374
    C174 362 181 346 185 326
    C187 354 192 380 201 402
    C212 382 216 354 214 316
    C217 334 222 352 230 370
    C242 348 246 322 244 292
    C240 236 236 184 234 136
    C232 84 202 44 150 44 Z"/>
  <!-- pink inner hair -->
  <path fill="url(#yu-pink)" opacity="0.5" d="M70 360 C80 342 85 320 87 296 C89 322 85 348 76 370 Z"/>
  <path fill="url(#yu-pink)" opacity="0.5" d="M230 360 C220 342 215 320 213 296 C211 322 215 348 224 370 Z"/>

  <!-- ================= floating launchpad ================= -->
  <g transform="translate(246 66) rotate(7) scale(0.92)">
    <ellipse cx="0" cy="30" rx="40" ry="22" fill="url(#yu-glow)"/>
    <rect x="-34" y="-24" width="68" height="58" rx="8" fill="url(#yu-deck)" stroke="#4a4a60" stroke-width="2"/>
    <rect x="-27" y="-17" width="54" height="34" rx="4" fill="#0a0a12"/>
    <g>
      <rect x="-23" y="-13" width="11" height="11" rx="2.5" fill="#ff5f9e"/>
      <rect x="-9" y="-13" width="11" height="11" rx="2.5" fill="#5fd8ff"/>
      <rect x="5" y="-13" width="11" height="11" rx="2.5" fill="#ffd45f"/>
      <rect x="-23" y="1" width="11" height="11" rx="2.5" fill="#8affa8"/>
      <rect x="-9" y="1" width="11" height="11" rx="2.5" fill="#c08aff"/>
      <rect x="5" y="1" width="11" height="11" rx="2.5" fill="#ff8a5f"/>
    </g>
    <rect x="19" y="-13" width="7" height="25" rx="3" fill="#2f2f42"/>
    <circle cx="0" cy="27" r="3" fill="#ff6ea8"/>
    <path d="M-10 -24 C-12 -33 -9 -39 -3 -42" fill="none" stroke="#4a4a60" stroke-width="2" stroke-linecap="round"/>
    <circle cx="-2" cy="-43" r="2.8" fill="#ff6ea8"/>
  </g>

  <!-- ================= legs ================= -->
  <path d="M127 372 L124 448" fill="none" stroke="url(#yu-skin-limb)" stroke-width="30" stroke-linecap="round"/>
  <path d="M173 372 L176 448" fill="none" stroke="url(#yu-skin-limb)" stroke-width="30" stroke-linecap="round"/>
  <!-- left: pink knee-high sock -->
  <path d="M126 400 L123 452" fill="none" stroke="#ef6ea8" stroke-width="32" stroke-linecap="round"/>
  <path d="M126 400 L123 452" fill="none" stroke="#ff8cc0" stroke-width="32" stroke-linecap="round" opacity="0.35"/>
  <!-- right: black ankle sock + rainbow band -->
  <path d="M174 424 L176 452" fill="none" stroke="#1c1a24" stroke-width="32" stroke-linecap="round"/>
  <path d="M174 420 L175 430" fill="none" stroke="#ffd45f" stroke-width="32" stroke-linecap="butt"/>
  <path d="M174 424 L175 430" fill="none" stroke="#5fd8ff" stroke-width="18" stroke-linecap="butt"/>
  <path d="M174 428 L175 432" fill="none" stroke="#ff5f9e" stroke-width="10" stroke-linecap="butt"/>

  <!-- ================= sneakers ================= -->
  <g>
    <path fill="#1b1a24" d="M108 448 L146 448 L148 474 C148 484 140 490 128 490 L106 490 C97 490 93 484 95 474 Z"/>
    <path fill="#e6e8ef" d="M92 474 L150 474 C150 485 143 492 130 492 L105 492 C95 492 91 485 92 474 Z"/>
    <path fill="#ef6ea8" d="M110 452 L144 452 L145 458 L109 458 Z"/>
    <path d="M112 462 L120 470 M122 462 L130 470 M132 462 L140 470" fill="none" stroke="#ef6ea8" stroke-width="3" stroke-linecap="round"/>
    <path fill="#1b1a24" d="M154 448 L192 448 C200 454 204 461 205 468 C205 481 197 490 185 490 L156 490 C152 490 152 479 152 474 Z"/>
    <path fill="#e6e8ef" d="M150 474 L208 474 C208 485 200 492 187 492 L156 492 C152 492 150 485 150 474 Z"/>
    <path fill="#ef6ea8" d="M156 452 L190 452 L192 458 L155 458 Z"/>
    <path d="M158 462 L166 470 M168 462 L176 470 M178 462 L186 470" fill="none" stroke="#ef6ea8" stroke-width="3" stroke-linecap="round"/>
  </g>

  <!-- ================= pleated skirt ================= -->
  <path fill="#1a1922" d="M106 336 L194 336 L208 400 C208 404 204 408 198 408 L102 408 C96 408 92 404 92 400 Z"/>
  <path fill="#2a2836" d="M106 336 L194 336 L196 346 L104 346 Z"/>
  <g stroke="#2f2d3d" stroke-width="2.4">
    <path d="M124 346 L116 406"/>
    <path d="M138 346 L132 406"/>
    <path d="M150 346 L150 406"/>
    <path d="M162 346 L168 406"/>
    <path d="M176 346 L184 406"/>
  </g>
  <path fill="#101018" d="M104 330 L196 330 L196 344 L104 344 Z"/>
  <rect x="138" y="326" width="24" height="22" rx="4" fill="#c9cdd8" stroke="#7d8290" stroke-width="2"/>
  <rect x="145" y="333" width="10" height="8" rx="2" fill="#1a1922"/>

  <!-- ================= midriff + crop top ================= -->
  <path fill="url(#yu-skin)" d="M110 294 L190 294 L192 338 L108 338 Z"/>
  <path fill="#e8b9a5" opacity="0.55" d="M110 294 L190 294 L190 304 L110 304 Z"/>
  <path d="M150 306 L150 332" stroke="#e8b9a5" stroke-width="2.6" stroke-linecap="round" opacity="0.75"/>
  <circle cx="150" cy="322" r="3" fill="#e0a892" opacity="0.8"/>
  <path fill="url(#yu-top)" d="M150 206
    C124 206 106 216 102 236
    C98 258 100 282 104 300
    L196 300
    C200 282 202 258 198 236
    C194 216 176 206 150 206 Z"/>
  <path fill="#100e17" d="M102 272 L198 272 L200 300 L100 300 Z"/>
  <!-- pink M emblem -->
  <g transform="translate(150 244)">
    <path d="M-15 12 L-15 -8 L-7 4 L0 -8 L7 4 L15 -8 L15 12" fill="none" stroke="#ff6ea8" stroke-width="5" stroke-linecap="round" stroke-linejoin="round"/>
    <circle cx="-15" cy="16" r="2.4" fill="#ff6ea8"/>
    <circle cx="15" cy="16" r="2.4" fill="#ff6ea8"/>
  </g>
  <text x="150" y="292" font-family="Arial Black, Arial, sans-serif" font-size="10" font-weight="900" fill="#8f8fa8" text-anchor="middle" letter-spacing="1.4">MIDNIGHT</text>

  <!-- ================= jacket sleeves ================= -->
  <path d="M106 222 C84 244 72 292 74 344" fill="none" stroke="url(#yu-jacket)" stroke-width="44" stroke-linecap="round"/>
  <path d="M194 222 C216 244 228 292 226 344" fill="none" stroke="url(#yu-jacket)" stroke-width="44" stroke-linecap="round"/>
  <path d="M64 268 C70 258 84 256 92 262" fill="none" stroke="#9c1330" stroke-width="3" stroke-linecap="round"/>
  <path d="M236 268 C230 258 216 256 208 262" fill="none" stroke="#9c1330" stroke-width="3" stroke-linecap="round"/>
  <text x="72" y="300" font-family="Arial Black, Arial, sans-serif" font-size="11" font-weight="900" fill="#1a1922" text-anchor="middle" transform="rotate(-78 72 300)">YUNO</text>
  <text x="228" y="300" font-family="Arial Black, Arial, sans-serif" font-size="11" font-weight="900" fill="#1a1922" text-anchor="middle" transform="rotate(78 228 300)">YUNO</text>
  <circle cx="76" cy="366" r="15" fill="url(#yu-skin)"/>
  <circle cx="224" cy="366" r="15" fill="url(#yu-skin)"/>
  <path d="M62 350 C68 344 84 344 88 350 L90 366 C80 374 68 372 62 364 Z" fill="#8f1229"/>
  <path d="M238 350 C232 344 216 344 212 350 L210 366 C220 374 232 372 238 364 Z" fill="#8f1229"/>

  <!-- ================= jacket body (shadowed back panels) ================= -->
  <path fill="url(#yu-jacket-dark)" d="M100 208
    C72 220 56 246 52 280
    C48 314 54 346 64 374
    C82 382 98 374 102 358
    C90 322 88 262 100 208 Z"/>
  <path fill="url(#yu-jacket-dark)" d="M200 208
    C228 220 244 246 248 280
    C252 314 246 346 236 374
    C218 382 202 374 198 358
    C210 322 212 262 200 208 Z"/>
  <path d="M99 210 C74 222 58 248 54 280 C51 312 56 344 66 372" fill="none" stroke="#f2556d" stroke-width="2.4" stroke-linecap="round" opacity="0.75"/>
  <path d="M201 210 C226 222 242 248 246 280 C249 312 244 344 234 372" fill="none" stroke="#f2556d" stroke-width="2.4" stroke-linecap="round" opacity="0.75"/>
  <path fill="#b31d38" d="M100 208 C86 214 74 226 66 242 C78 230 90 220 104 213 Z"/>
  <path fill="#b31d38" d="M200 208 C214 214 226 226 234 242 C222 230 210 220 196 213 Z"/>
  <!-- puffer seams -->
  <path d="M70 250 C64 282 62 320 68 352" fill="none" stroke="#a51c36" stroke-width="2.6" stroke-linecap="round" opacity="0.8"/>
  <path d="M230 250 C236 282 238 320 232 352" fill="none" stroke="#a51c36" stroke-width="2.6" stroke-linecap="round" opacity="0.8"/>
  <path d="M56 288 C76 282 96 282 106 288" fill="none" stroke="#a51c36" stroke-width="2.6" stroke-linecap="round" opacity="0.75"/>
  <path d="M244 288 C224 282 204 282 194 288" fill="none" stroke="#a51c36" stroke-width="2.6" stroke-linecap="round" opacity="0.75"/>
  <!-- denim-blue collar -->
  <path fill="url(#yu-collar)" d="M100 208 C86 214 74 226 66 242 C80 228 96 218 110 212 Z"/>
  <path fill="url(#yu-collar)" d="M200 208 C214 214 226 226 234 242 C220 228 204 218 190 212 Z"/>
  <path fill="#2f2f66" opacity="0.7" d="M100 208 C92 212 84 218 78 226 C86 220 94 215 102 212 Z"/>
  <path fill="#2f2f66" opacity="0.7" d="M200 208 C208 212 216 218 222 226 C214 220 206 215 198 212 Z"/>
  <!-- zipper stops at the jacket hem -->
  <path d="M110 300 L110 318" stroke="#ffd45f" stroke-width="2.4" stroke-linecap="round" opacity="0.9"/>
  <path d="M190 300 L190 318" stroke="#ffd45f" stroke-width="2.4" stroke-linecap="round" opacity="0.9"/>

  <!-- ================= neck + choker ================= -->
  <path fill="#e8b9a5" d="M134 176 L166 176 L166 214 L134 214 Z"/>
  <path fill="#14121c" d="M130 188 L170 188 L170 202 L130 202 Z"/>
  <path fill="#ff6ea8" d="M150 187 L158 195 L150 203 L142 195 Z"/>
  <circle cx="150" cy="195" r="2.8" fill="#ffd0e6"/>

  <!-- ================= head ================= -->
  <path fill="url(#yu-skin)" d="M150 60 C114 60 94 90 94 130 C94 172 118 202 150 202 C182 202 206 172 206 130 C206 90 186 60 150 60 Z"/>
  <ellipse cx="110" cy="168" rx="14" ry="7.5" fill="#f79a94" opacity="0.42"/>
  <ellipse cx="190" cy="168" rx="14" ry="7.5" fill="#f79a94" opacity="0.42"/>

  <!-- eyes -->
  <g>
    <ellipse cx="123" cy="146" rx="15.5" ry="17.5" fill="#fdf7f4"/>
    <ellipse cx="177" cy="146" rx="15.5" ry="17.5" fill="#fdf7f4"/>
    <ellipse cx="123" cy="147" rx="12" ry="15" fill="url(#yu-eye)"/>
    <ellipse cx="177" cy="147" rx="12" ry="15" fill="url(#yu-eye)"/>
    <ellipse cx="123" cy="149" rx="5" ry="7.6" fill="#2b0611"/>
    <ellipse cx="177" cy="149" rx="5" ry="7.6" fill="#2b0611"/>
    <circle cx="127.5" cy="139" r="4.3" fill="#fff"/>
    <circle cx="181.5" cy="139" r="4.3" fill="#fff"/>
    <circle cx="119" cy="154" r="2.2" fill="#fff" opacity="0.85"/>
    <circle cx="173" cy="154" r="2.2" fill="#fff" opacity="0.85"/>
    <path d="M107 136 C114 124 134 122 140 135" fill="none" stroke="#181420" stroke-width="5.6" stroke-linecap="round"/>
    <path d="M193 136 C186 124 166 122 160 135" fill="none" stroke="#181420" stroke-width="5.6" stroke-linecap="round"/>
    <path d="M108 161 C115 169 131 170 138 163" fill="none" stroke="#181420" stroke-width="2.6" stroke-linecap="round" opacity="0.7"/>
    <path d="M192 161 C185 169 169 170 162 163" fill="none" stroke="#181420" stroke-width="2.6" stroke-linecap="round" opacity="0.7"/>
    <path d="M109 118 C118 112 132 112 139 117" fill="none" stroke="#2b2436" stroke-width="4" stroke-linecap="round"/>
    <path d="M191 118 C182 112 168 112 161 117" fill="none" stroke="#2b2436" stroke-width="4" stroke-linecap="round"/>
  </g>

  <path d="M142 180 C146 187 154 187 158 180" fill="none" stroke="#a4404a" stroke-width="3" stroke-linecap="round"/>

  <!-- ================= front hair ================= -->
  <path fill="url(#yu-hair)" d="M76 164
    C70 108 100 58 150 58
    C200 58 230 108 224 164
    C216 138 208 122 198 112
    C186 128 170 136 150 136
    C130 136 114 128 102 112
    C92 122 84 138 76 164 Z"/>
  <!-- pink streak in the fringe -->
  <path fill="url(#yu-pink)" d="M150 60 C138 60 128 63 120 68 C130 66 140 64 152 64 C164 66 174 70 182 76 C174 66 162 60 150 60 Z" opacity="0.95"/>
  <path fill="url(#yu-pink)" d="M124 108 C118 130 114 154 114 178 C109 152 110 126 118 106 Z"/>
  <path fill="url(#yu-hair)" d="M196 108 C204 130 208 154 208 178 C213 154 213 128 204 106 Z"/>
  <path fill="url(#yu-hair)" d="M96 108 C89 130 86 154 86 178 C81 154 82 128 90 106 Z"/>
  <!-- side locks with pink tips -->
  <path fill="url(#yu-hair)" d="M90 120 C84 156 81 200 83 244 C84 274 88 300 94 320 C97 300 99 276 99 250 C99 204 95 154 99 124 Z"/>
  <path fill="url(#yu-hair)" d="M210 120 C216 156 219 200 217 244 C216 274 212 300 206 320 C203 300 201 276 201 250 C201 204 205 154 201 124 Z"/>
  <path fill="url(#yu-pink)" opacity="0.85" d="M88 268 C90 290 93 306 96 320 C99 302 100 286 99 268 Z"/>
  <path fill="url(#yu-pink)" opacity="0.85" d="M212 268 C210 290 207 306 204 320 C201 302 200 286 201 268 Z"/>
  <!-- sheen -->
  <path fill="#4a3f5c" opacity="0.55" d="M150 58 C118 58 96 78 86 112 C98 84 122 68 150 68 C178 68 202 84 214 112 C204 78 182 58 150 58 Z"/>
  <path d="M108 100 C122 82 142 74 160 74" fill="none" stroke="#a99ec4" stroke-width="5" stroke-linecap="round" opacity="0.3"/>
  <!-- hair clip -->
  <g transform="translate(186 96) rotate(18)">
    <path d="M-9 0 L-3 0 L-3 -6 L3 -6 L3 0 L9 0 L9 6 L3 6 L3 12 L-3 12 L-3 6 L-9 6 Z" fill="#ff5f9e"/>
  </g>

  <!-- ================= cat-ear headphones ================= -->
  <!-- headband over the hair, ear to ear -->
  <path d="M92 126 C86 76 114 50 150 50 C186 50 214 76 208 126" fill="none" stroke="#1c1a24" stroke-width="12" stroke-linecap="round"/>
  <path d="M92 126 C86 76 114 50 150 50 C186 50 214 76 208 126" fill="none" stroke="#3a3648" stroke-width="3.4" stroke-linecap="round"/>
  <!-- cat ears -->
  <path d="M120 100 C106 74 101 44 106 18 C119 32 132 56 138 80 Z" fill="#1c1a24" stroke="#3a3648" stroke-width="2.6"/>
  <path d="M126 90 C117 70 114 48 118 30 C127 43 133 62 137 80 Z" fill="url(#yu-pink)"/>
  <path d="M180 100 C194 74 199 44 194 18 C181 32 168 56 162 80 Z" fill="#1c1a24" stroke="#3a3648" stroke-width="2.6"/>
  <path d="M174 90 C183 70 186 48 182 30 C173 43 167 62 163 80 Z" fill="url(#yu-pink)"/>
  <!-- earcups over the side locks -->
  <rect x="68" y="120" width="34" height="56" rx="16" fill="#22202c" stroke="#4a4658" stroke-width="2.6"/>
  <rect x="77" y="132" width="16" height="32" rx="8" fill="#3a3648"/>
  <circle cx="88" cy="176" r="4.4" fill="#ff5f9e"/>
  <rect x="198" y="120" width="34" height="56" rx="16" fill="#22202c" stroke="#4a4658" stroke-width="2.6"/>
  <rect x="207" y="132" width="16" height="32" rx="8" fill="#3a3648"/>
  <circle cx="212" cy="176" r="4.4" fill="#ff5f9e"/>
  <!-- mic boom -->
  <path d="M86 174 C88 196 104 206 122 202" fill="none" stroke="#3a3648" stroke-width="4" stroke-linecap="round"/>
  <circle cx="124" cy="202" r="5" fill="#ff5f9e"/>
</svg>
